<?xml version="1.0" encoding="UTF-8"?>
<svg id="Layer_1" data-name="Layer 1" xmlns="http://www.w3.org/2000/svg" viewBox="0 0 676.41 553.41">
  <defs>
    <style>
      .cls-1 {
        stroke: #3a3a3a;
      }

      .cls-1, .cls-2, .cls-3, .cls-4, .cls-5, .cls-6, .cls-7, .cls-8, .cls-9, .cls-10, .cls-11, .cls-12, .cls-13, .cls-14, .cls-15 {
        stroke-miterlimit: 10;
      }

      .cls-1, .cls-2, .cls-3, .cls-4, .cls-6, .cls-7, .cls-8, .cls-9, .cls-12 {
        stroke-width: 1.94px;
      }

      .cls-1, .cls-3, .cls-4, .cls-5, .cls-10, .cls-12, .cls-15 {
        fill: none;
      }

      .cls-2 {
        fill: #474748;
      }

      .cls-2, .cls-4, .cls-6, .cls-7, .cls-13, .cls-14 {
        stroke: #231f20;
      }

      .cls-3 {
        stroke-linecap: round;
      }

      .cls-3, .cls-8, .cls-9, .cls-11, .cls-12 {
        stroke: #000;
      }

      .cls-5 {
        stroke-width: 8.54px;
      }

      .cls-5, .cls-15 {
        stroke: #666766;
      }

      .cls-6, .cls-9, .cls-11, .cls-13 {
        fill: #666766;
      }

      .cls-7, .cls-14 {
        fill: #e9b55b;
      }

      .cls-8 {
        fill: #d3d3d3;
      }

      .cls-10 {
        stroke: #d3d3d3;
        stroke-width: 6.99px;
      }

      .cls-11 {
        stroke-width: 2.19px;
      }

      .cls-13 {
        stroke-width: 1.5px;
      }

      .cls-14 {
        stroke-width: 1.8px;
      }

      .cls-15 {
        stroke-width: 13.98px;
      }
    </style>
  </defs>
  <g>
    <line class="cls-1" x1="88.11" y1="311.71" x2="185.8" y2="521.21"/>
    <line class="cls-1" x1="32.2" y1="465.3" x2="241.7" y2="367.61"/>
    <line class="cls-1" x1="203.25" y1="321.78" x2="70.66" y2="511.13"/>
    <line class="cls-1" x1="225.49" y1="342.17" x2="48.42" y2="490.75"/>
    <line class="cls-1" x1="250.78" y1="396.39" x2="23.13" y2="436.53"/>
    <line class="cls-1" x1="252.09" y1="426.53" x2="21.81" y2="406.38"/>
    <line class="cls-1" x1="231.63" y1="482.75" x2="42.28" y2="350.16"/>
    <line class="cls-1" x1="211.25" y1="505" x2="62.66" y2="327.92"/>
    <line class="cls-1" x1="157.02" y1="530.28" x2="116.88" y2="302.63"/>
    <line class="cls-1" x1="126.88" y1="531.6" x2="147.03" y2="301.32"/>
    <line class="cls-1" x1="97.42" y1="525.07" x2="176.48" y2="307.85"/>
    <line class="cls-1" x1="245.56" y1="455.99" x2="28.34" y2="376.93"/>
    <circle class="cls-15" cx="136.95" cy="416.46" r="128.33"/>
    <circle class="cls-12" cx="136.95" cy="416.46" r="135.95"/>
    <circle class="cls-10" cx="136.95" cy="416.46" r="118.66"/>
    <circle class="cls-12" cx="136.95" cy="416.46" r="121.48"/>
    <circle class="cls-12" cx="136.95" cy="416.46" r="115.58"/>
    <circle class="cls-2" cx="136.95" cy="416.46" r="20.41"/>
  </g>
  <line class="cls-3" x1="326.59" y1="396.64" x2="140.5" y2="436.57"/>
  <line class="cls-3" x1="128.33" y1="397.96" x2="298.56" y2="326.75"/>
  <path class="cls-8" d="M325.92,5.57l.88-.59c6.53-4.42,14.85-5.24,22.11-2.18h0c12.62,5.31,17.97,20.3,11.56,32.41l-4.91,9.28c-1.29,2.43-.72,5.43,1.37,7.21l15.38,13.17-8.6,8.62-20.7-19.51c-1.94-1.82-2.4-4.72-1.14-7.06l9.7-18.02c3.23-5.99.3-13.45-6.14-15.66h0c-3.27-1.12-6.88-.64-9.75,1.3l-1.93,1.31-7.83-10.28Z"/>
  <rect class="cls-9" x="301.2" y="-3.05" width="16.58" height="55.03" transform="translate(156.34 -245.59) rotate(55.92)"/>
  <rect class="cls-13" x="304.71" y="296.92" width="8.49" height="66.2" transform="translate(-52.61 58.66) rotate(-10)"/>
  <rect class="cls-6" x="282.07" y="290.2" width="41.81" height="11.8" rx="3.72" ry="3.72"/>
  <path class="cls-14" d="M378.04,69.39l-9.78,9.81,5.25,4.66-208.41,102.39-2.61-2.74-10.15,9.43,9.71,10.45-32.07,215.57c-.39,2.59,2.08,4.69,4.58,3.9l179.25-56.7c1.87-.59,3.38-2,4.1-3.83l93.98-239.61,4.22,4.21,9.78-9.81-47.86-47.75ZM142.52,408.5l29.42-194.45,132.87,143.09-162.29,51.36ZM311.4,343.87l-136.87-147.32,208.83-102.29,17.82,17.78-89.78,231.83Z"/>
  <circle class="cls-5" cx="314.49" cy="360.93" r="33.95"/>
  <circle class="cls-4" cx="314.49" cy="360.93" r="37.71"/>
  <circle class="cls-4" cx="314.49" cy="360.93" r="30.36"/>
  <rect class="cls-13" x="315.92" y="360.53" width="8.49" height="66.2" transform="translate(-63.49 61.58) rotate(-10)"/>
  <circle class="cls-6" cx="314.49" cy="360.93" r="8.59"/>
  <path class="cls-7" d="M420.6,130.63l41.46,43.53c6.17,6.48,12.93,12.38,20.2,17.61l55.44,39.93c.99.64,2.25.69,3.28.12h0c1.27-.69,1.91-2.15,1.58-3.55l-.11-.45c-.17-.71-.58-1.34-1.15-1.79l-56.87-48.67c-3.67-3.14-7.18-6.47-10.52-9.96l-44.15-46.21-9.15,9.45Z"/>
  <rect class="cls-11" x="360.9" y="68.15" width="19.18" height="7" rx="3.5" ry="3.5" transform="translate(58.1 283.32) rotate(-45.07)"/>
  <rect class="cls-11" x="413.62" y="120.74" width="19.18" height="7" rx="3.5" ry="3.5" transform="translate(36.35 336.09) rotate(-45.07)"/>
  <rect class="cls-8" x="136.24" y="153.39" width="11.03" height="38.12" transform="translate(-79.47 142.54) rotate(-42.88)"/>
  <rect class="cls-9" x="140.18" y="183.74" width="25.52" height="7.99" rx="1.62" ry="1.62" transform="translate(-86.88 154.23) rotate(-42.88)"/>
  <path class="cls-9" d="M79.87,159.33c7.14-4.13,14.2-3.13,40.12-15.12,25.92-11.99,37.26-18.37,41.69-19.44,7.12-1.72,12.84.43,14.63,2.24s1.64,4.52-.39,6.03-18.15,8.09-25.47,11.88-16.59,17.08-24.29,23.03c-7.7,5.95-14.09,9.03-19.25,10.11s-18.04,2.38-23.24-.48c-3.27-1.8-6.22-4.84-7.57-8.55-1.35-3.71-1.27-6.77,3.78-9.69Z"/>
  <line class="cls-3" x1="225.65" y1="357.25" x2="298.56" y2="326.75"/>
  <rect class="cls-6" x="305.03" y="420.47" width="41.81" height="11.8" rx="3.72" ry="3.72"/>
</svg>