<?xml version="1.0" encoding="UTF-8"?>
<svg id="Layer_1" data-name="Layer 1" xmlns="http://www.w3.org/2000/svg" viewBox="0 0 701.38 516.42">
  <defs>
    <style>
      .cls-1 {
        stroke-width: 1.8px;
      }

      .cls-1, .cls-2, .cls-3, .cls-4, .cls-5, .cls-6, .cls-7, .cls-8, .cls-9, .cls-10, .cls-11, .cls-12, .cls-13, .cls-14, .cls-15 {
        stroke-miterlimit: 10;
      }

      .cls-1, .cls-3, .cls-4, .cls-6, .cls-8, .cls-14 {
        stroke: #231f20;
      }

      .cls-1, .cls-4 {
        fill: #79c25c;
      }

      .cls-2 {
        stroke: #3a3a3a;
      }

      .cls-2, .cls-3, .cls-4, .cls-5, .cls-6, .cls-8, .cls-9, .cls-10, .cls-13 {
        stroke-width: 1.94px;
      }

      .cls-2, .cls-5, .cls-6, .cls-7, .cls-11, .cls-13, .cls-15 {
        fill: none;
      }

      .cls-3 {
        fill: #474748;
      }

      .cls-5 {
        stroke-linecap: round;
      }

      .cls-5, .cls-9, .cls-10, .cls-12, .cls-13 {
        stroke: #000;
      }

      .cls-7 {
        stroke-width: 8.54px;
      }

      .cls-7, .cls-15 {
        stroke: #666766;
      }

      .cls-8, .cls-10, .cls-12, .cls-14 {
        fill: #666766;
      }

      .cls-9 {
        fill: #d3d3d3;
      }

      .cls-11 {
        stroke: #d3d3d3;
        stroke-width: 6.99px;
      }

      .cls-12 {
        stroke-width: 2.19px;
      }

      .cls-14 {
        stroke-width: 1.5px;
      }

      .cls-15 {
        stroke-width: 13.98px;
      }
    </style>
  </defs>
  <circle class="cls-3" cx="136.96" cy="379.47" r="20.41"/>
  <g>
    <line class="cls-2" x1="533.07" y1="147.76" x2="595.77" y2="370.26"/>
    <line class="cls-2" x1="453.18" y1="290.36" x2="675.67" y2="227.66"/>
    <line class="cls-2" x1="645.09" y1="176.24" x2="483.76" y2="341.78"/>
    <line class="cls-2" x1="663.77" y1="199.94" x2="465.08" y2="318.08"/>
    <line class="cls-2" x1="679.99" y1="257.52" x2="448.85" y2="260.5"/>
    <line class="cls-2" x1="676.44" y1="287.48" x2="452.41" y2="230.54"/>
    <line class="cls-2" x1="647.2" y1="339.68" x2="481.65" y2="178.34"/>
    <line class="cls-2" x1="623.5" y1="358.35" x2="505.35" y2="159.67"/>
    <line class="cls-2" x1="565.91" y1="374.58" x2="562.94" y2="143.44"/>
    <line class="cls-2" x1="535.95" y1="371.03" x2="592.9" y2="146.99"/>
    <line class="cls-2" x1="507.93" y1="359.84" x2="620.92" y2="158.18"/>
    <line class="cls-2" x1="665.25" y1="315.51" x2="463.59" y2="202.51"/>
    <circle class="cls-15" cx="564.42" cy="259.01" r="128.33"/>
    <circle class="cls-13" cx="564.42" cy="259.01" r="135.95"/>
    <circle class="cls-11" cx="564.42" cy="259.01" r="118.66"/>
    <circle class="cls-13" cx="564.42" cy="259.01" r="121.48"/>
    <circle class="cls-13" cx="564.42" cy="259.01" r="115.58"/>
    <circle class="cls-3" cx="564.42" cy="259.01" r="13.01"/>
  </g>
  <line class="cls-5" x1="327.31" y1="390.43" x2="137.22" y2="399.88"/>
  <line class="cls-5" x1="131.42" y1="359.82" x2="310.89" y2="316.94"/>
  <path class="cls-9" d="M389.59,4.35l.96-.45c7.16-3.31,15.5-2.78,22.18,1.41h0c11.6,7.27,14.47,22.93,6.2,33.84l-6.34,8.37c-1.66,2.19-1.58,5.24.19,7.34l13.06,15.47-9.87,7.12-17.29-22.59c-1.62-2.11-1.61-5.05,0-7.15l12.47-16.22c4.15-5.4,2.46-13.23-3.54-16.44h0c-3.05-1.63-6.69-1.74-9.83-.29l-2.12.98-6.08-11.4Z"/>
  <rect class="cls-10" x="362.05" y="-7.16" width="16.58" height="55.03" transform="translate(233.38 -324.33) rotate(65.18)"/>
  <rect class="cls-14" x="316.38" y="288.74" width="8.49" height="66.2" transform="translate(-4.12 4.15) rotate(-.74)"/>
  <rect class="cls-8" x="299.27" y="281.5" width="41.81" height="11.8" rx="3.72" ry="3.72" transform="translate(-3.67 4.15) rotate(-.74)"/>
  <path class="cls-1" d="M430.76,75.73l-11.23,8.1,4.44,5.45-222.18,67.51-2.13-3.12-11.53,7.67,7.9,11.88-66.35,207.6c-.8,2.5,1.3,4.97,3.89,4.59l186.04-27.11c1.95-.28,3.66-1.43,4.66-3.12l131.32-221.36,3.49,4.84,11.23-8.1-39.55-54.83ZM143.73,372.51l60.34-187.18,108.11,162.61-168.44,24.57ZM320.81,335.91l-111.38-167.43,222.57-67.34,14.73,20.42-125.92,214.36Z"/>
  <circle class="cls-7" cx="321.12" cy="353.24" r="33.95"/>
  <circle class="cls-6" cx="321.12" cy="353.24" r="30.36"/>
  <path class="cls-4" d="M462.91,143.03l33.91,49.64c5.05,7.39,10.77,14.3,17.1,20.63l48.29,48.33c.87.79,2.11,1.04,3.22.65h0c1.36-.48,2.23-1.81,2.13-3.25l-.03-.46c-.05-.73-.35-1.42-.85-1.95l-48.29-57.19c-3.12-3.69-6.05-7.54-8.78-11.53l-36.14-52.71-10.56,7.85Z"/>
  <rect class="cls-12" x="413.36" y="73.24" width="19.18" height="7" rx="3.5" ry="3.5" transform="translate(35.03 261.93) rotate(-35.8)"/>
  <rect class="cls-12" x="456.92" y="133.63" width="19.18" height="7" rx="3.5" ry="3.5" transform="translate(7.93 298.83) rotate(-35.8)"/>
  <rect class="cls-9" x="175.45" y="120.35" width="11.03" height="38.12" transform="translate(-46.92 123.51) rotate(-33.62)"/>
  <rect class="cls-10" x="176.79" y="152.3" width="25.52" height="7.99" rx="1.62" ry="1.62" transform="translate(-54.83 131.08) rotate(-33.62)"/>
  <path class="cls-10" d="M122,116.5c7.71-2.92,14.52-.8,42.03-8.47,27.51-7.66,39.73-12.14,44.28-12.48,7.31-.55,12.6,2.49,14.08,4.56s.89,4.72-1.36,5.89-19.22,5.06-27.05,7.62c-7.83,2.56-19.13,14.18-27.68,18.82-8.56,4.63-15.36,6.64-20.63,6.88-5.26.24-18.19-.56-22.86-4.22-2.94-2.3-5.36-5.77-6.1-9.65s-.16-6.88,5.29-8.95Z"/>
  <line class="cls-5" x1="234.03" y1="335.3" x2="310.89" y2="316.94"/>
  <circle class="cls-6" cx="321.12" cy="353.24" r="37.71"/>
  <rect class="cls-14" x="317.21" y="353.32" width="8.49" height="66.2" transform="translate(-4.95 4.17) rotate(-.74)"/>
  <rect class="cls-8" x="300.21" y="412.87" width="41.81" height="11.8" rx="3.72" ry="3.72" transform="translate(-5.36 4.17) rotate(-.74)"/>
  <circle class="cls-8" cx="321.12" cy="353.24" r="8.59"/>
</svg>