<?xml version="1.0" encoding="UTF-8"?>
<svg id="Layer_1" data-name="Layer 1" xmlns="http://www.w3.org/2000/svg" viewBox="0 0 874.02 527">
  <defs>
    <style>
      .cls-1, .cls-2, .cls-3, .cls-4, .cls-5, .cls-6, .cls-7, .cls-8, .cls-9, .cls-10, .cls-11, .cls-12, .cls-13, .cls-14, .cls-15 {
        stroke-miterlimit: 10;
      }

      .cls-1, .cls-2, .cls-4, .cls-7, .cls-10, .cls-11, .cls-13, .cls-14, .cls-15 {
        stroke-width: 2.36px;
      }

      .cls-1, .cls-2, .cls-8, .cls-9, .cls-10, .cls-13 {
        stroke: #231f20;
      }

      .cls-1, .cls-3, .cls-9, .cls-11 {
        fill: #666766;
      }

      .cls-2, .cls-5, .cls-6, .cls-7, .cls-12, .cls-14, .cls-15 {
        fill: none;
      }

      .cls-3 {
        stroke-width: 2.66px;
      }

      .cls-3, .cls-4, .cls-7, .cls-11, .cls-15 {
        stroke: #000;
      }

      .cls-4 {
        fill: #d3d3d3;
      }

      .cls-5 {
        stroke: #d3d3d3;
        stroke-width: 8.51px;
      }

      .cls-6 {
        stroke-width: 17.02px;
      }

      .cls-6, .cls-12 {
        stroke: #666766;
      }

      .cls-7 {
        stroke-linecap: round;
      }

      .cls-8 {
        stroke-width: 2.19px;
      }

      .cls-8, .cls-13 {
        fill: #6691cc;
      }

      .cls-9 {
        stroke-width: 1.83px;
      }

      .cls-10 {
        fill: #474748;
      }

      .cls-12 {
        stroke-width: 10.4px;
      }

      .cls-14 {
        stroke: #3a3a3a;
      }
    </style>
  </defs>
  <g>
    <line class="cls-14" x1="166.68" y1="219.62" x2="166.68" y2="501.02"/>
    <line class="cls-14" x1="25.98" y1="360.32" x2="307.39" y2="360.32"/>
    <line class="cls-14" x1="288.53" y1="289.97" x2="44.83" y2="430.67"/>
    <line class="cls-14" x1="302.59" y1="323.9" x2="30.78" y2="396.74"/>
    <line class="cls-14" x1="302.59" y1="396.74" x2="30.78" y2="323.9"/>
    <line class="cls-14" x1="288.53" y1="430.67" x2="44.83" y2="289.97"/>
    <line class="cls-14" x1="237.03" y1="482.17" x2="96.33" y2="238.47"/>
    <line class="cls-14" x1="203.1" y1="496.23" x2="130.27" y2="224.41"/>
    <line class="cls-14" x1="130.27" y1="496.23" x2="203.1" y2="224.41"/>
    <line class="cls-14" x1="96.33" y1="482.17" x2="237.03" y2="238.47"/>
    <line class="cls-14" x1="67.19" y1="459.81" x2="266.17" y2="260.83"/>
    <line class="cls-14" x1="266.17" y1="459.81" x2="67.19" y2="260.83"/>
    <circle class="cls-6" cx="166.68" cy="360.32" r="156.22"/>
    <circle class="cls-15" cx="166.68" cy="360.32" r="165.5"/>
    <circle class="cls-5" cx="166.68" cy="360.32" r="144.45"/>
    <circle class="cls-15" cx="166.68" cy="360.32" r="147.88"/>
    <circle class="cls-15" cx="166.68" cy="360.32" r="140.7"/>
    <circle class="cls-10" cx="166.68" cy="360.32" r="24.85"/>
  </g>
  <g>
    <line class="cls-14" x1="707.33" y1="219.62" x2="707.33" y2="501.02"/>
    <line class="cls-14" x1="566.63" y1="360.32" x2="848.04" y2="360.32"/>
    <line class="cls-14" x1="829.19" y1="289.97" x2="585.48" y2="430.67"/>
    <line class="cls-14" x1="843.24" y1="323.9" x2="571.43" y2="396.74"/>
    <line class="cls-14" x1="843.24" y1="396.74" x2="571.43" y2="323.9"/>
    <line class="cls-14" x1="829.19" y1="430.67" x2="585.48" y2="289.97"/>
    <line class="cls-14" x1="777.69" y1="482.17" x2="636.98" y2="238.47"/>
    <line class="cls-14" x1="743.75" y1="496.23" x2="670.92" y2="224.41"/>
    <line class="cls-14" x1="670.92" y1="496.23" x2="743.75" y2="224.41"/>
    <line class="cls-14" x1="636.98" y1="482.17" x2="777.69" y2="238.47"/>
    <line class="cls-14" x1="607.84" y1="459.81" x2="806.83" y2="260.83"/>
    <line class="cls-14" x1="806.83" y1="459.81" x2="607.84" y2="260.83"/>
    <circle class="cls-6" cx="707.33" cy="360.32" r="156.22"/>
    <circle class="cls-15" cx="707.33" cy="360.32" r="165.5"/>
    <circle class="cls-5" cx="707.33" cy="360.32" r="144.45"/>
    <circle class="cls-15" cx="707.33" cy="360.32" r="147.88"/>
    <circle class="cls-15" cx="707.33" cy="360.32" r="140.7"/>
    <circle class="cls-10" cx="707.33" cy="360.32" r="15.83"/>
  </g>
  <line class="cls-7" x1="386.11" y1="436.02" x2="160.25" y2="384.33"/>
  <line class="cls-7" x1="166.68" y1="335.47" x2="391.14" y2="344.49"/>
  <path class="cls-4" d="M586.56,4.2l1.27-.2c9.48-1.51,19.08,1.86,25.52,8.97h0c11.19,12.35,9.38,31.65-3.92,41.7l-10.19,7.71c-2.67,2.02-3.58,5.62-2.2,8.67l10.2,22.44-13.92,5.08-12.8-32.17c-1.2-3.01-.22-6.45,2.37-8.38l19.97-14.89c6.64-4.95,7.25-14.68,1.28-20.43h0c-3.03-2.92-7.26-4.25-11.42-3.58l-2.81.45-3.36-15.37Z"/>
  <rect class="cls-11" x="548.63" y="-16.9" width="20.18" height="67" transform="translate(486.95 -537.74) rotate(80.92)"/>
  <rect class="cls-9" x="395.75" y="313.14" width="10.33" height="80.59" transform="translate(105.14 -91.72) rotate(15)"/>
  <rect class="cls-1" x="386.32" y="305.76" width="50.9" height="14.36" rx="4.53" ry="4.53"/>
  <path class="cls-8" d="M611.23,101.44l-15.84,5.79,3.4,7.85-282.62,5.75-1.47-4.36-16.05,5.18,5.33,16.53-146.29,221.35c-1.76,2.66-.12,6.25,3.04,6.66l226.94,29.66c2.37.31,4.76-.47,6.49-2.12l226.96-216.01,2.49,6.82,15.84-5.79-28.24-77.3ZM176.92,354.41l132.5-199.4,72.98,226.23-205.48-26.83ZM396.49,369.98l-75.22-232.96,283.03-5.42,10.52,28.79-218.33,209.59Z"/>
  <circle class="cls-12" cx="391.14" cy="390.39" r="41.33"/>
  <circle class="cls-2" cx="391.14" cy="390.39" r="45.9"/>
  <circle class="cls-2" cx="391.14" cy="390.39" r="36.95"/>
  <rect class="cls-9" x="375.4" y="389.09" width="10.33" height="80.59" transform="translate(124.1 -83.87) rotate(15)"/>
  <circle class="cls-1" cx="391.14" cy="390.39" r="10.46"/>
  <path class="cls-13" d="M626.69,190.9l23.35,69.36c3.48,10.33,7.9,20.31,13.23,29.82l40.62,72.58c.76,1.21,2.13,1.91,3.56,1.82h0c1.75-.11,3.21-1.39,3.57-3.11l.11-.55c.18-.87.06-1.78-.35-2.57l-37.7-82.96c-2.43-5.36-4.6-10.83-6.48-16.41l-24.94-73.7-14.96,5.72Z"/>
  <rect class="cls-3" x="590.07" y="95.78" width="23.35" height="8.53" rx="4.26" ry="4.26" transform="translate(2.2 212.53) rotate(-20.07)"/>
  <rect class="cls-3" x="621.18" y="180.92" width="23.35" height="8.53" rx="4.26" ry="4.26" transform="translate(-25.12 228.37) rotate(-20.07)"/>
  <rect class="cls-4" x="290.8" y="70.36" width="13.43" height="46.41" transform="translate(-14.36 95.86) rotate(-17.88)"/>
  <rect class="cls-11" x="286.46" y="111.32" width="31.07" height="9.73" rx="1.97" ry="1.97" transform="translate(-21.09 98.33) rotate(-17.88)"/>
  <path class="cls-11" d="M235.99,47.26c10-.88,17.28,3.85,52.04,3.96,34.77.1,50.56-1.1,56,0,8.74,1.77,13.95,7.08,14.99,9.99s-.52,5.83-3.54,6.45c-3.02.62-24.19-.42-34.21,0s-27.09,10.3-38.65,12.91-20.19,2.71-26.44,1.25-21.13-6.66-25.4-12.49c-2.68-3.67-4.37-8.54-3.96-13.32.42-4.79,2.08-8.12,9.16-8.74Z"/>
  <line class="cls-7" x1="295.01" y1="340.63" x2="391.14" y2="344.49"/>
  <rect class="cls-1" x="343.83" y="464.34" width="50.9" height="14.36" rx="4.53" ry="4.53"/>
</svg>