<svg viewBox="0 0 100 100" xmlns="http://www.w3.org/2000/svg">
  <!-- Laptop screen -->
  <rect x="20" y="20" width="60" height="40" rx="2"
        fill="none" stroke="currentColor" stroke-width="2"/>
  <!-- Screen area -->
  <rect x="23" y="23" width="54" height="34"
        fill="rgba(255,255,255,0.05)" stroke="currentColor" stroke-width="1"/>
  <!-- Base/keyboard -->
  <path d="M 15 60 L 20 62 L 80 62 L 85 60 Z"
        fill="none" stroke="currentColor" stroke-width="2"/>
  <!-- Trackpad -->
  <rect x="42" y="63" width="16" height="8" rx="1"
        fill="currentColor" opacity="0.3"/>

  <!-- EVM logo embedded (in screen center) -->
  <g transform="translate(50, 40) scale(0.03)">
    <path d="M0 -250v369.743l-267.095 83.14L0 -250zM0 -250v369.743l267.095 83.14L0 -250zM0 545V287.725L-267.095 140.43 0 545zM0 545V287.725l267.095-147.295L0 545z" fill="currentColor" />
    <path d="M-267.095 102.33L0 -21.79v255.311L-267.095 102.33zM267.095 102.33L0 -21.79v255.311l267.095-131.191z" fill="currentColor" />
  </g>

  <!-- Capacity label -->
  <text x="50" y="82" text-anchor="middle" font-size="8" fill="currentColor" opacity="0.7">~100 TPS</text>
</svg>
